<svg id="Layer_7" data-name="Layer 7" xmlns="http://www.w3.org/2000/svg" viewBox="0 0 471.81 471.81"><defs><style>.cls-1{fill:#0ea0ff;}</style></defs><title>design</title><path class="cls-1" d="M283,183h16.22V172.19H261.41V302h37.85V280.33H283a5.41,5.41,0,1,1,0-10.81h16.22V258.7h-5.41a5.41,5.41,0,1,1,0-10.81h5.41V237.07H283a5.41,5.41,0,1,1,0-10.81h16.22V215.45h-5.41a5.41,5.41,0,0,1,0-10.82h5.41V193.82H283A5.41,5.41,0,0,1,283,183Z" transform="translate(-20.1 -20.1)"/><path class="cls-1" d="M99.19,323.59A10.83,10.83,0,0,0,110,334.41H402a10.83,10.83,0,0,0,10.81-10.82V312.78H99.19Zm64.89-5.41h5.4a5.41,5.41,0,1,1,0,10.82h-5.4a5.41,5.41,0,0,1,0-10.82Zm-48.67,0h32.44a5.41,5.41,0,1,1,0,10.82H115.41a5.41,5.41,0,0,1,0-10.82Z" transform="translate(-20.1 -20.1)"/><path class="cls-1" d="M212.74,301.29a5,5,0,0,1-.05.67h21.73a5,5,0,0,1,0-.67V215.45H212.74Zm5.41-75a5.41,5.41,0,1,1,10.81,0v59.48a5.41,5.41,0,1,1-10.81,0Z" transform="translate(-20.1 -20.1)"/><path class="cls-1" d="M185.7,193.82c0-5.95-6.19-14.16-10.82-19.3-5.14,5.68-10.8,13.75-10.8,19.3,0,8.79,4.95,16.22,10.81,16.22S185.7,202.61,185.7,193.82Z" transform="translate(-20.1 -20.1)"/><polygon class="cls-1" points="192.65 180.41 192.65 184.53 214.28 184.53 214.28 180.41 213.64 179.13 193.28 179.13 192.65 180.41"/><polygon class="cls-1" points="151.64 281.87 157.94 281.87 159.97 233.2 149.62 233.2 151.64 281.87"/><path class="cls-1" d="M326.3,301.29c0,.22,0,.45-.05.67H348c0-.22,0-.45-.05-.67V258.7H326.3Zm5.4-31.77a5.41,5.41,0,0,1,10.82,0v16.22a5.41,5.41,0,1,1-10.82,0Z" transform="translate(-20.1 -20.1)"/><polygon class="cls-1" points="198.69 168.31 208.23 168.31 203.46 158.78 198.69 168.31"/><polygon class="cls-1" points="153.97 200.76 150.36 222.39 159.23 222.39 155.62 200.76 153.97 200.76"/><polygon class="cls-1" points="327.83 223.66 317.01 202.03 306.2 223.66 306.2 227.79 327.83 227.79 327.83 223.66"/><path class="cls-1" d="M402,128.93H110a10.82,10.82,0,0,0-10.81,10.81V302h61.73l-2.24-53.85c0-.12,0-.24,0-.37v-.16a5.51,5.51,0,0,1,.06-.57h0l5-30c-6.27-4.74-10.48-13.35-10.48-23.16,0-13.9,16.11-29.29,18-31a5.4,5.4,0,0,1,7.36,0c1.84,1.71,18,17.1,18,31,0,9.81-4.2,18.42-10.48,23.16l5,30h0c0,.19.05.38.07.57v.53L188.86,302H202a5,5,0,0,1,0-.67V199.22a5.5,5.5,0,0,1,.56-2.42l16.23-32.44a5.42,5.42,0,0,1,9.68,0l16.22,32.44a5.66,5.66,0,0,1,.57,2.42V301.29c0,.22,0,.45-.05.67h5.45V166.78a5.41,5.41,0,0,1,5.41-5.41h48.67a5.41,5.41,0,0,1,5.4,5.41V302h5.46a5,5,0,0,1,0-.67V242.48a5.48,5.48,0,0,1,.57-2.42l16.22-32.44a5.41,5.41,0,0,1,9.68,0l16.22,32.44a5.48,5.48,0,0,1,.57,2.42v58.81a5,5,0,0,1-.05.67h54.12V139.74A10.82,10.82,0,0,0,402,128.93ZM126.22,166.78H115.41a5.41,5.41,0,1,1,0-10.82h10.81a5.41,5.41,0,1,1,0,10.82Zm32.45-16.22H115.41a5.41,5.41,0,0,1,0-10.82h43.26a5.41,5.41,0,1,1,0,10.82ZM396.59,291.15H375a5.41,5.41,0,0,1,0-10.82h21.63a5.41,5.41,0,0,1,0,10.82Zm0-16.22h-5.41a5.41,5.41,0,0,1,0-10.82h5.41a5.41,5.41,0,1,1,0,10.82Z" transform="translate(-20.1 -20.1)"/><rect class="cls-1" x="181.83" y="357.57" width="108.15" height="5.41"/><path class="cls-1" d="M256,20.1C125.71,20.1,20.1,125.71,20.1,256S125.71,491.9,256,491.9,491.9,386.29,491.9,256,386.29,20.1,256,20.1ZM402,345.22H290.54l7.21,21.63h17.73a5.41,5.41,0,0,1,5.41,5.41v10.81h59.48a5.41,5.41,0,0,1,0,10.82H142.45a5.41,5.41,0,0,1,0-10.82h48.66V372.26a5.41,5.41,0,0,1,5.41-5.41h17.73l7.21-21.63H110a21.66,21.66,0,0,1-21.63-21.63V139.74A21.66,21.66,0,0,1,110,118.11H402a21.66,21.66,0,0,1,21.63,21.63V323.59A21.66,21.66,0,0,1,402,345.22Z" transform="translate(-20.1 -20.1)"/><polygon class="cls-1" points="212.77 325.12 205.56 346.75 266.25 346.75 259.04 325.12 212.77 325.12"/></svg>