<svg id="Layer_6" data-name="Layer 6" xmlns="http://www.w3.org/2000/svg" viewBox="0 0 471.81 471.81"><defs><style>.cls-1{fill:#0ea0ff;}</style></defs><title>dna</title><path class="cls-1" d="M309.79,270,242.3,201.14a49.77,49.77,0,0,0-22.12,10.75l79.07,80.64A51.53,51.53,0,0,0,309.79,270Z" transform="translate(-20.1 -20.1)"/><path class="cls-1" d="M303.78,207.27c-17.29-4.08-33.42-7.7-48-7.54l55.41,56.51C311.33,241.36,307.79,224.91,303.78,207.27Z" transform="translate(-20.1 -20.1)"/><path class="cls-1" d="M291.82,300.11l-79.07-80.64A51.64,51.64,0,0,0,202.21,242l67.5,68.84A49.63,49.63,0,0,0,291.82,300.11Z" transform="translate(-20.1 -20.1)"/><path class="cls-1" d="M180.09,333.42c-22-4.75-39.05-6.46-53.3-2L182,387.78C186.42,373.24,184.75,355.86,180.09,333.42Z" transform="translate(-20.1 -20.1)"/><path class="cls-1" d="M331.92,178.58c22,4.75,39.05,6.46,53.3,2L330,124.22C325.58,138.75,327.26,156.14,331.92,178.58Z" transform="translate(-20.1 -20.1)"/><path class="cls-1" d="M256,20.1C125.71,20.1,20.1,125.71,20.1,256S125.71,491.9,256,491.9,491.9,386.29,491.9,256,386.29,20.1,256,20.1ZM391.32,214.33a5.25,5.25,0,0,1-6.38-3.88,5.37,5.37,0,0,1,3.8-6.51,71.53,71.53,0,0,0,33.93-19.89,6.55,6.55,0,0,0,0-9.13,6.26,6.26,0,0,0-8.95,0c-22.43,22.87-50.16,21.12-79.29,15.13,1.11,4.9,2.09,9.16,3.1,13.68,12.44,2.24,22.72,3.14,32.13,2.84a5.36,5.36,0,0,1,.33,10.71A157,157,0,0,1,339.94,215c7.16,35.39,10.2,74.53-20.42,105.76-28.69,29.26-64.09,29.16-103.71,20.84,4.78,30.4,4.39,64.08-22.93,91.94a16.63,16.63,0,0,1-23.81,0,17.44,17.44,0,0,1,0-24.28,54.79,54.79,0,0,0,8.43-11l-61-62.24a53.6,53.6,0,0,0-10.76,8.59,16.59,16.59,0,0,1-23.8,0,17.39,17.39,0,0,1,0-24.27c27.31-27.86,60.33-28.27,90.15-23.4a229.16,229.16,0,0,1-4.61-33.48,5.25,5.25,0,1,1,10.49-.55c2.78,55.53,38.15,113.52-1.44,153.9a6.54,6.54,0,0,0,0,9.12,6.24,6.24,0,0,0,8.95,0c62.43-63.66-32.47-161,23.38-218,25-25.85,58.11-20.24,92.32-12.31-1-4.52-1.91-8.64-2.94-13.88-34.43-7.62-70.08-11.76-98.29,17-12.15,12.38-19.13,26.94-21.35,44.5a5.27,5.27,0,0,1-5.88,4.63,5.34,5.34,0,0,1-4.54-6c2.53-20,10.49-36.58,24.34-50.71,30.63-31.23,69-28.12,103.7-20.83-4.78-30.4-4.38-64.08,22.94-91.94a16.62,16.62,0,0,1,23.8,0,17.44,17.44,0,0,1,0,24.28,55.16,55.16,0,0,0-8.43,11l61,62.24a53.83,53.83,0,0,0,10.75-8.59C416.83,156.6,435,164.24,435,179.49a17.21,17.21,0,0,1-4.93,12.13A81.7,81.7,0,0,1,391.32,214.33Z" transform="translate(-20.1 -20.1)"/><path class="cls-1" d="M177.58,322c-1.08-4.77-2.1-9.19-3.1-13.68a159.57,159.57,0,0,0-28.36-2.89c-19.83,0-39.78,5.22-56.79,22.57a6.55,6.55,0,0,0,0,9.13,6.25,6.25,0,0,0,9,0C120.71,314.2,148.44,316,177.58,322Z" transform="translate(-20.1 -20.1)"/><path class="cls-1" d="M200.83,255.76c-.16,14.88,3.39,31.33,7.39,49,17.29,4.08,33.42,7.69,48,7.54Z" transform="translate(-20.1 -20.1)"/><path class="cls-1" d="M335.51,95.15a6.56,6.56,0,0,0,0-9.12,6.24,6.24,0,0,0-8.95,0c-62.08,63.3,32.06,161.47-23.42,218-25.19,25.69-57.64,20.31-92.29,12.27,1.4,6.23,2.2,10.11,2.94,13.88,34.43,7.62,70.08,11.76,98.3-17C374.5,249.55,279.71,152.05,335.51,95.15Z" transform="translate(-20.1 -20.1)"/></svg>