<svg id="Layer_5" data-name="Layer 5" xmlns="http://www.w3.org/2000/svg" viewBox="0 0 471.81 471.81"><defs><style>.cls-1{fill:#0ea0ff;}</style></defs><title>soft</title><polygon class="cls-1" points="240.12 170.78 265.8 183.05 265.8 164.44 240.12 164.44 240.12 170.78"/><rect class="cls-1" x="240.12" y="147.56" width="25.67" height="8.44"/><rect class="cls-1" x="206.01" y="147.56" width="25.67" height="8.44"/><circle class="cls-1" cx="235.9" cy="104.51" r="4.22"/><circle class="cls-1" cx="312.08" cy="104.51" r="4.22"/><circle class="cls-1" cx="159.72" cy="104.51" r="4.22"/><polygon class="cls-1" points="185.54 265.69 231.68 287.73 231.68 228.26 185.54 206.21 185.54 265.69"/><path class="cls-1" d="M224.92,347.72a47.59,47.59,0,0,1-11.48,27h85.12a47.59,47.59,0,0,1-11.48-27Z" transform="translate(-20.1 -20.1)"/><path class="cls-1" d="M256,20.1C125.71,20.1,20.1,125.71,20.1,256S125.71,491.9,256,491.9,491.9,386.29,491.9,256,386.29,20.1,256,20.1ZM400.06,334.73a13,13,0,0,1-13,13H295.57c1.64,15.41,11.91,24.54,15.1,27h17.92a12.67,12.67,0,0,1,0,25.33H183.41a12.67,12.67,0,0,1,0-25.33h17.93a40.19,40.19,0,0,0,15.1-27h-91.5a13,13,0,0,1-13-13V172.21a13,13,0,0,1,13-13h92.72v-8.44H179.82a4.22,4.22,0,0,1-4.22-4.22v-10a12.66,12.66,0,1,1,8.44,0v5.79h37.84a4.22,4.22,0,0,1,4.23,4.22v12.66h25.67V136.54a12.66,12.66,0,1,1,8.44,0v22.67h25.67V146.55a4.22,4.22,0,0,1,4.23-4.22H328v-5.79a12.66,12.66,0,1,1,8.44,0v10a4.22,4.22,0,0,1-4.22,4.22H294.34v8.44H310a4.22,4.22,0,1,1,0,8.44H294.34v8.44H379a4.22,4.22,0,0,1,4.22,4.22V326.62a4.22,4.22,0,0,1-4.22,4.22H133a4.22,4.22,0,0,1-4.22-4.22V309.83a4.23,4.23,0,0,1,8.45,0V322.4H374.73V184.53H294.34v22.64l18.06,8.64a4.23,4.23,0,0,1,2.4,3.81v68.82a4.21,4.21,0,0,1-2.4,3.81l-8.67,4.15a4.22,4.22,0,0,1-3.64-7.62l6.27-3V226.31l-46.14,22v59.48l24.65-11.78a4.22,4.22,0,0,1,3.64,7.62l-30.69,14.66a4.26,4.26,0,0,1-3.64,0L199.6,292.25a4.21,4.21,0,0,1-2.4-3.81V219.62a4.24,4.24,0,0,1,2.4-3.81l18.06-8.64V184.53H137.27v107.3a4.23,4.23,0,0,1-8.45,0V180.31a4.22,4.22,0,0,1,4.22-4.22h84.62v-8.44H124.94a4.56,4.56,0,0,0-4.56,4.56V334.73a4.56,4.56,0,0,0,4.56,4.55H387.06a4.56,4.56,0,0,0,4.56-4.55V172.21a4.56,4.56,0,0,0-4.56-4.56H328a4.22,4.22,0,1,1,0-8.44h59a13,13,0,0,1,13,13Z" transform="translate(-20.1 -20.1)"/><polygon class="cls-1" points="235.9 220.92 280.7 199.52 235.9 178.12 191.11 199.52 235.9 220.92"/><polygon class="cls-1" points="231.68 164.44 206.01 164.44 206.01 183.05 231.68 170.78 231.68 164.44"/><path class="cls-1" d="M179.19,387.4a4.23,4.23,0,0,0,4.22,4.22H328.59a4.22,4.22,0,1,0,0-8.44H183.41A4.22,4.22,0,0,0,179.19,387.4Z" transform="translate(-20.1 -20.1)"/></svg>